
<svg xmlns="http://www.w3.org/2000/svg" width="17" height="16" fill="none"><g stroke="#161525" stroke-width="1.5" opacity=".4"><path d="M8.185 1.333c3.247 0 6 2.69 6 5.951 0 3.314-2.798 5.64-5.382 7.22a1.256 1.256 0 0 1-1.236 0c-2.58-1.596-5.382-3.895-5.382-7.22 0-3.262 2.753-5.95 6-5.95z"/><path stroke-linecap="round" d="M6.195 4.924c.715-.426 1.34-.254 1.714.02.154.112.231.168.276.168.045 0 .122-.056.276-.169.375-.273 1-.445 1.714-.019.939.56 1.151 2.406-1.014 3.964-.412.297-.618.445-.976.445-.357 0-.564-.148-.976-.445C5.044 7.33 5.257 5.484 6.195 4.924z"/></g></svg>